# xmcd CD database file generated by OrangeCD 5.2
#
# Track frame offsets:
#	182
#	11110
#	24290
#	37567
#	50337
#	61377
#	74105
#	86845
#	99710
#	112380
#	123800
#	135520
#	147442
#	158705
#	171080
#	183317
#	193330
#	205850
#	217385
#	232197
#
# Disc length: 3227 seconds
#
# Revision: 1
# Processed by: cddbd v1.5.1PL0 Copyright (c) Steve Scherf et al.
# Submitted via: OrangeCD 5.2
#
DISCID=2f0c9914
DTITLE=Various Artist - 20 R&B Dancefloor Fillers
DYEAR=1995
DGENRE=R&B Compilation
TTITLE0=The Traits - Harlem Shuffle
TTITLE1=Joe Tex - Show Me
TTITLE2=Jackie Wilson - (Your Love Keeps Lifting Me) Higher and Higher
TTITLE3=Fontella Bass and Bobby McClure - Don't Mess Up A Good Thing
TTITLE4=Timmy Shaw - Gonna Send You Back To Georgia
TTITLE5=Tommy Tucker - Hi-Heel Sneekers
TTITLE6=Jimmy Reed - Shame, Shame, Shame
TTITLE7=Sugar Pie DeSanto - Soulful Dress
TTITLE8=Ike and Tina Turner - Put On Your Tight Pants
TTITLE9=John Lee Hooker - Boom Boom
TTITLE10=Robert Parker - Barefootin'
TTITLE11=Little Milton - We're Gonna Make It
TTITLE12=Lee Dorsey - Holy Cow
TTITLE13=Etta James - Something's Got A Hold On Me
TTITLE14=Maurice and Mac - You Left The Water Running
TTITLE15=Betty Everett - Gettin' Mighty Crowded
TTITLE16=Moody and The Deltas - Everybody Come Clap Your Hands
TTITLE17=The Dixiebelles - (Down At) Papa Joe's
TTITLE18=Tony Clarke - Ain't Love Good, Ain't Love Proud
TTITLE19=Cannibal and The Headhunters - Land Of 1000 Dances
EXTD=
EXTT0=
EXTT1=
EXTT2=
EXTT3=
EXTT4=
EXTT5=
EXTT6=
EXTT7=
EXTT8=
EXTT9=
EXTT10=
EXTT11=
EXTT12=
EXTT13=
EXTT14=
EXTT15=
EXTT16=
EXTT17=
EXTT18=
EXTT19=
PLAYORDER=
